<svg width="45" height="45" viewBox="0 0 45 45" fill="none" xmlns="http://www.w3.org/2000/svg">
<g clip-path="url(#clip0_188_2051)">
<path d="M40.4494 28.662C38.5035 28.6129 36.9939 28.8082 35.7287 29.3437C35.3643 29.491 34.7797 29.491 34.7317 29.9524C34.9264 30.146 34.9499 30.4628 35.1206 30.7312C35.4123 31.2182 35.9239 31.8743 36.3858 32.2146C36.8974 32.6045 37.4084 32.9934 37.9429 33.3342C38.8918 33.9178 39.9624 34.2586 40.8868 34.8427C41.4223 35.1836 41.9573 35.6215 42.4929 35.9869C42.7656 36.1816 42.9308 36.4984 43.2717 36.6195V36.5459C43.1015 36.3277 43.0524 36.0114 42.8828 35.7671C42.639 35.5244 42.3958 35.3046 42.152 35.0619C41.4469 34.113 40.5704 33.2851 39.6215 32.6045C38.8427 32.069 37.1401 31.3392 36.8238 30.4394L36.7758 30.3903C37.3102 30.3412 37.9429 30.1465 38.4544 30.0004C39.2823 29.7822 40.036 29.8302 40.8868 29.6115C41.2767 29.5133 41.6656 29.3923 42.0555 29.2707V29.0525C41.6176 28.6146 41.3012 28.0305 40.8393 27.6171C39.5986 26.5465 38.2352 25.5 36.8238 24.6241C36.0695 24.1376 35.096 23.8208 34.2932 23.4079C34.0004 23.2618 33.5145 23.1887 33.3443 22.9455C32.9053 22.411 32.6626 21.7047 32.3463 21.0716C31.6411 19.7332 30.9594 18.2493 30.3513 16.8379C29.9134 15.8889 29.6451 14.94 29.1106 14.0641C26.6041 9.92749 23.8783 7.42151 19.6932 4.96353C18.7933 4.45252 17.7227 4.23274 16.5845 3.96551L14.7597 3.86734C14.3698 3.69719 13.981 3.23471 13.6401 3.01547C12.2532 2.13961 8.67614 0.241723 7.65357 2.74824C6.9964 4.32981 8.62706 5.88684 9.18061 6.69017C9.59509 7.24972 10.1296 7.88235 10.4224 8.51498C10.586 8.92837 10.6406 9.36685 10.8113 9.80478C11.2001 10.8753 11.5655 12.0681 12.0765 13.0661C12.3492 13.5771 12.6355 14.1132 12.9764 14.5751C13.1711 14.8424 13.5119 14.9645 13.5845 15.4025C13.2436 15.8895 13.2202 16.6186 13.0255 17.2278C12.1491 19.9776 12.4899 23.3839 13.7306 25.4029C14.1206 26.011 15.0395 27.3499 16.2862 26.8383C17.3813 26.4004 17.137 25.0135 17.4533 23.7968C17.5269 23.505 17.4779 23.3103 17.6235 23.1151V23.1642L18.6215 25.1837C19.3757 26.3758 20.6901 27.6171 21.7846 28.445C22.3682 28.8829 22.8307 29.6377 23.5604 29.9049V29.8313H23.5124C23.3662 29.6132 23.147 29.515 22.9523 29.3448C22.5144 28.9069 22.0279 28.3713 21.687 27.8849C20.6655 26.5225 19.7657 25.0135 18.9624 23.4565C18.5724 22.7022 18.2316 21.8749 17.9163 21.1207C17.7691 20.8283 17.7691 20.3899 17.5264 20.2448C17.161 20.7793 16.6265 21.2428 16.3577 21.8994C15.8952 22.9455 15.8472 24.2353 15.6771 25.5736C15.5789 25.5981 15.6225 25.5736 15.5789 25.6227C14.8012 25.4285 14.5329 24.6247 14.2411 23.944C13.5114 22.2163 13.3892 19.4426 14.0219 17.447C14.192 16.936 14.9228 15.3299 14.631 14.8435C14.4838 14.381 13.9984 14.1137 13.7301 13.7483C13.4138 13.2859 13.074 12.7023 12.8548 12.1913C12.2712 10.8279 11.9794 9.31995 11.3463 7.95707C11.0534 7.32444 10.5429 6.66727 10.129 6.08372C9.66653 5.42655 9.15661 4.96408 8.79121 4.18584C8.6696 3.91861 8.49944 3.48013 8.69414 3.18781C8.74213 2.99311 8.8403 2.92058 9.0339 2.8715C9.35022 2.60426 10.2512 2.94458 10.5675 3.08964C11.4673 3.45504 12.2216 3.79535 12.9758 4.30582C13.3167 4.54905 13.6821 5.01153 14.12 5.13369H14.6316C15.4104 5.30384 16.2857 5.18277 17.0148 5.40092C18.3046 5.8154 19.4723 6.42294 20.5194 7.08066C23.7065 9.10016 26.3352 11.9715 28.1109 15.403C28.4027 15.9625 28.5243 16.4736 28.7926 17.0577C29.3042 18.2504 29.9368 19.4665 30.4468 20.6353C30.9583 21.7789 31.4448 22.9476 32.1745 23.8966C32.5399 24.4076 33.9993 24.6748 34.6559 24.9426C35.1429 25.1608 35.8966 25.3571 36.3357 25.6243C37.1624 26.1353 37.9898 26.7194 38.768 27.279C39.1569 27.5702 40.3741 28.1788 40.4467 28.6642L40.4494 28.662Z" fill="white"/>
<path d="M15.6356 7.517C15.2994 7.51402 14.9643 7.55491 14.6387 7.63861V7.6877H14.6867C14.8814 8.07709 15.2222 8.34487 15.4655 8.68572L16.0255 9.85391L16.0735 9.80482C16.4144 9.56159 16.5851 9.17219 16.5851 8.58865C16.4389 8.41849 16.4149 8.24779 16.2933 8.07764C16.1472 7.8344 15.8309 7.71224 15.6356 7.51809V7.517Z" fill="white"/>
<path d="M1.5 40.9029H2.88366V35.4409L5.0257 40.2042C5.27836 40.7785 5.62453 40.9848 6.30293 40.9848C6.98133 40.9848 7.31396 40.7807 7.56703 40.2042L9.70928 35.4409V40.905H11.0931V35.4499C11.0931 34.9177 10.8799 34.6604 10.441 34.5275C9.38997 34.1994 8.68471 34.4832 8.36561 35.1928L6.26355 39.8938L4.22754 35.1907C3.92156 34.4811 3.20317 34.1973 2.15215 34.5254C1.71287 34.6585 1.5 34.9159 1.5 35.4479V40.9029ZM12.2432 36.4556H13.6265V39.4662C13.6136 39.6298 13.679 40.0137 14.4369 40.0254C14.8237 40.0316 17.4216 40.0254 17.4458 40.0254V36.4407H18.8322C18.8383 36.4407 18.8307 41.3285 18.8309 41.3494C18.8385 42.5549 17.3351 42.8167 16.6424 42.837H12.2734V41.906L16.6501 41.9058C17.5406 41.8114 17.4356 41.3691 17.4356 41.22V40.857H14.4948C13.1265 40.8447 12.2553 40.2473 12.2445 39.5603C12.2434 39.4988 12.2736 36.4854 12.2432 36.4556Z" fill="white"/>
<path d="M19.8984 40.9029H23.8765C24.3421 40.9029 24.7947 40.8055 25.1542 40.6367C25.753 40.3619 26.0457 39.9893 26.0457 39.5014V38.4904C26.0457 38.0911 25.713 37.7187 25.0613 37.4703C24.7153 37.337 24.2896 37.2663 23.8772 37.2663H22.2006C21.642 37.2663 21.3758 37.0977 21.3094 36.7253C21.296 36.681 21.296 36.6432 21.296 36.601V35.9714C21.296 35.9359 21.296 35.9002 21.3094 35.8559C21.3758 35.5721 21.5222 35.4921 22.0144 35.4458C22.0544 35.4458 22.1075 35.4368 22.1477 35.4368H26.0992V34.5145H22.2142C21.6553 34.5145 21.3627 34.55 21.0965 34.6298C20.2709 34.8872 19.9116 35.2973 19.9116 36.0069V36.8141C19.9116 37.435 20.617 37.9672 21.8007 38.0913C21.934 38.1001 22.0669 38.1089 22.1998 38.1089H23.6368C23.6901 38.1089 23.7434 38.1089 23.7832 38.118C24.2221 38.1534 24.4087 38.2332 24.5416 38.3928C24.6236 38.4748 24.6483 38.5527 24.6483 38.6389V39.446C24.6483 39.5437 24.5818 39.6679 24.4487 39.7742C24.3289 39.8808 24.1294 39.9516 23.8632 39.9694C23.8099 39.9694 23.7701 39.9782 23.717 39.9782H19.8984V40.9007V40.9029ZM34.6772 39.2976C34.6772 40.2467 35.3822 40.7788 36.8059 40.8853C36.9387 40.8956 37.0718 40.9014 37.205 40.9029H40.8107V39.9805H37.1783C36.3668 39.9805 36.0606 39.7764 36.0606 39.2885V34.5164H34.677L34.6772 39.2976ZM26.9283 39.3456V36.0571C26.9283 35.2216 27.5148 34.7149 28.6748 34.5549C28.7985 34.5373 28.9232 34.5284 29.0482 34.5283H31.6746C31.804 34.5283 31.9332 34.5373 32.0614 34.5549C33.2213 34.7149 33.8079 35.2214 33.8079 36.0571V39.3456C33.8079 40.0233 33.5587 40.3861 32.9845 40.6226L34.3474 41.853H32.7408L31.6381 40.8576L30.528 40.9279H29.0482C28.7949 40.9279 28.5283 40.8923 28.2349 40.8123C27.353 40.5723 26.9283 40.1101 26.9283 39.3456ZM28.4219 39.2635C28.4219 39.308 28.4352 39.3523 28.4486 39.4058C28.5306 39.7881 28.8884 40.0014 29.4329 40.0014H30.6901L29.5355 38.959H31.1421L32.1469 39.8681C32.3325 39.7692 32.4546 39.6179 32.4956 39.4237C32.5089 39.3794 32.5089 39.3349 32.5089 39.2904V36.1373C32.5089 36.1018 32.5089 36.0553 32.4956 36.0128C32.4135 35.6574 32.0555 35.453 31.5223 35.453H29.4354C28.8202 35.453 28.4223 35.7196 28.4223 36.1373V39.266L28.4219 39.2635Z" fill="white"/>
<path fill-rule="evenodd" clip-rule="evenodd" d="M41.4609 39.9542C41.4609 40.5633 41.9423 40.9739 42.4806 40.9739C43.0189 40.9739 43.5002 40.5633 43.5002 39.9542C43.5002 39.3451 43.0189 38.9346 42.4806 38.9346C41.9423 38.9346 41.4609 39.3451 41.4609 39.9542ZM43.2718 39.9542C43.2718 40.4165 42.9184 40.7618 42.4802 40.7618C42.0372 40.7618 41.6886 40.4165 41.6886 39.9542C41.6886 39.492 42.0368 39.1466 42.4802 39.1466C42.918 39.1466 43.2718 39.492 43.2718 39.9542ZM42.755 40.5362H42.9832L42.649 40.0252C42.8284 40.0061 42.9642 39.9189 42.9642 39.7069C42.9642 39.4702 42.8145 39.3726 42.5265 39.3726H42.0723V40.5364H42.2681V40.0334H42.4502L42.755 40.5362ZM42.2681 39.8697V39.5354H42.4937C42.6106 39.5354 42.7521 39.5572 42.7521 39.6934C42.7521 39.8564 42.6243 39.8701 42.4773 39.8701L42.2681 39.8697Z" fill="white"/>
</g>
<defs>
<clipPath id="clip0_188_2051">
<rect width="45" height="45" fill="white"/>
</clipPath>
</defs>
</svg>
