<svg width="45" height="45" viewBox="0 0 45 45" fill="none" xmlns="http://www.w3.org/2000/svg">
<g clip-path="url(#clip0_188_2018)">
<path d="M36.8844 10.254L34.1736 40.6219L21.9885 44L9.83684 40.6267L7.12891 10.254H36.8844ZM31.3252 16.4626H12.6659L13.6707 27.7273H26.5808L26.1484 32.5584L21.9903 33.681L17.8417 32.5608L17.5765 29.5899H13.8371L14.359 35.4388L21.9895 37.5571L22.0067 37.5523L22.0062 37.5513L29.6304 35.4388L30.5618 25.0025L30.6527 24.0022H17.0774L16.737 20.1877H30.9916L31.3252 16.4626Z" fill="white"/>
<path d="M9.89648 2H11.7895V3.87031H13.5212V2H15.4143V7.66377H13.5213V5.7672H11.7896V7.66377H9.89657V2H9.89648Z" fill="white"/>
<path d="M17.9048 3.87819H16.2383V2H21.4653V3.87819H19.798V7.66377H17.9049V3.87819H17.9048Z" fill="white"/>
<path d="M22.2949 2H24.2688L25.4831 3.99008L26.6961 2H28.6707V7.66377H26.7855V4.85649L25.4831 6.87028H25.4505L24.1472 4.85649V7.66377H22.2949V2Z" fill="white"/>
<path d="M29.6133 2H31.5069V5.79165H34.1691V7.66377H29.6133V2Z" fill="white"/>
</g>
<defs>
<clipPath id="clip0_188_2018">
<rect width="45" height="45" fill="white"/>
</clipPath>
</defs>
</svg>
