<svg width="45" height="45" viewBox="0 0 45 45" fill="none" xmlns="http://www.w3.org/2000/svg">
<g clip-path="url(#clip0_188_2040)">
<path d="M20.7541 42.3017L3.26257 36.0271L2.98245 35.9264L2.98242 35.6316V9.99372L2.98245 9.40515L3.53943 9.59492L21.0309 15.555L21.3177 15.6527V15.9538V41.9062V42.5039L20.7541 42.3017Z" fill="white"/>
<path d="M41.7366 36.0271L24.2454 42.3017L23.6816 42.5039V41.9062V15.9538V15.6527L23.9685 15.555L41.4597 9.59492L42.0169 9.40515V9.99372V35.6316V35.9264L41.7366 36.0271Z" fill="white"/>
<path d="M5.08845 7.67117L22.7911 2.68835L23.0331 2.69326L39.4475 7.98563L39.4541 8.7849L23.0397 14.3576H22.7729L5.07031 8.47535L5.08845 7.67117Z" fill="white"/>
</g>
<defs>
<clipPath id="clip0_188_2040">
<rect width="45" height="45" fill="white"/>
</clipPath>
</defs>
</svg>
