<svg width="45" height="45" viewBox="0 0 45 45" fill="none" xmlns="http://www.w3.org/2000/svg">
<g clip-path="url(#clip0_188_2029)">
<path d="M37.8083 10.254L35.0975 40.6219L22.9123 44L10.7607 40.6267L8.05273 10.254H37.8083ZM32.249 16.4626H13.5898L13.9284 20.1877H28.1666L27.8277 24.0022H14.2606L14.5945 27.7273H27.5046L27.0723 32.5584L22.9142 33.681L18.7655 32.5608L18.5003 29.5899H14.7609L15.2828 35.4388L22.9134 37.5571L22.9305 37.5523L22.93 37.5513L30.5542 35.4388L31.4856 25.0025L31.5765 24.0022L32.249 16.4626Z" fill="white"/>
<path d="M15.0547 2H19.5664V3.88672H16.9414V5.77344H19.5664V7.66016H15.0547V2Z" fill="white"/>
<path d="M20.4688 2H24.9805V3.64062H22.3555V3.96875H24.9805V7.74219H20.4688V6.01953H23.0938V5.69141H20.4688V2Z" fill="white"/>
<path d="M25.8828 2H30.3945V3.64062H27.7695V3.96875H30.3945V7.74219H25.8828V6.01953H28.5078V5.69141H25.8828V2Z" fill="white"/>
</g>
<defs>
<clipPath id="clip0_188_2029">
<rect width="45" height="45" fill="white"/>
</clipPath>
</defs>
</svg>
