<svg width="45" height="45" viewBox="0 0 45 45" fill="none" xmlns="http://www.w3.org/2000/svg">
<g clip-path="url(#clip0_188_1996)">
<path d="M7.30078 22.5C7.30078 28.5192 10.7968 33.7157 15.8679 36.18L8.61558 16.3136C7.77293 18.2051 7.30078 20.2922 7.30078 22.5ZM32.7636 21.7343C32.7636 19.8562 31.7538 18.5518 31.1771 17.5429C30.4048 16.2804 29.6799 15.2278 29.6799 13.9785C29.6799 12.5868 31.0774 11.2805 32.5689 11.2805C32.6363 11.2805 32.6971 11.2862 32.7646 11.2881C30.0628 8.80485 26.4594 7.30005 22.5008 7.30005C17.3812 7.30005 12.8554 9.83275 10.1014 13.7116C10.318 13.7819 10.393 13.7486 10.6818 13.7486C12.2674 13.7486 14.7326 13.5586 14.7326 13.5586C15.5496 13.5045 15.6494 14.71 14.8267 14.8088C14.8267 14.8088 14.0059 14.9086 13.0901 14.9532L18.7245 31.8424L22.0495 21.8664L19.5767 14.9808C18.7587 14.9371 17.9816 14.8364 17.9816 14.8364C17.1627 14.7832 17.2577 13.5301 18.0747 13.5862C18.0747 13.5862 20.5903 13.7762 22.0809 13.7762C23.6721 13.7762 26.1317 13.5862 26.1317 13.5862C26.9496 13.532 27.0484 14.7376 26.2305 14.8364C26.2305 14.8364 25.404 14.9361 24.4901 14.9808L30.0865 31.7103L31.6056 26.6506C32.3789 24.6746 32.7636 23.0406 32.7636 21.7343ZM22.7668 23.8263L18.2068 37.0807C19.571 37.4853 21.0093 37.7001 22.5008 37.7001C24.2687 37.7001 25.9673 37.3922 27.551 36.8384C27.513 36.7709 27.4702 36.7025 27.4389 36.6294L22.7668 23.8263ZM35.8407 15.2021C35.9081 15.6866 35.9433 16.2082 35.9433 16.7649C35.9433 18.3115 35.6526 20.0433 34.7852 22.215L30.1445 35.6433C34.6646 33.0099 37.6998 28.1069 37.6998 22.5C37.6998 19.8581 37.0244 17.3738 35.8407 15.2021Z" fill="white"/>
<path d="M3.5 22.5C3.5 32.9728 12.0215 41.5 22.4991 41.5C32.9785 41.5 41.5 32.9728 41.5 22.5C41.5 12.0272 32.9785 3.5 22.5 3.5C12.0215 3.5 3.5 12.0272 3.5 22.5ZM5.39525 22.5C5.39525 13.0722 13.0655 5.40095 22.4991 5.40095C31.9326 5.40095 39.6048 13.0722 39.6048 22.5C39.6048 31.9278 31.9326 39.6009 22.5 39.6009C13.0684 39.6009 5.39525 31.9278 5.39525 22.5Z" fill="white"/>
</g>
<defs>
<clipPath id="clip0_188_1996">
<rect width="45" height="45" fill="white"/>
</clipPath>
</defs>
</svg>
